<?xml version="1.0" encoding="utf-8" standalone="no"?>
<!DOCTYPE svg PUBLIC "-//W3C//DTD SVG 1.1//EN"
  "http://www.w3.org/Graphics/SVG/1.1/DTD/svg11.dtd">
<svg height="491.04pt" version="1.1" viewBox="0 0 432 491.04" width="432pt" xmlns="http://www.w3.org/2000/svg" xmlns:xlink="http://www.w3.org/1999/xlink">
 <metadata>
  <rdf:RDF xmlns:cc="http://creativecommons.org/ns#" xmlns:dc="http://purl.org/dc/elements/1.1/" xmlns:rdf="http://www.w3.org/1999/02/22-rdf-syntax-ns#">
   <cc:Work>
    <dc:type rdf:resource="http://purl.org/dc/dcmitype/StillImage"/>
    <dc:date>2024-10-22T20:16:23.457459</dc:date>
    <dc:format>image/svg+xml</dc:format>
    <dc:creator>
     <cc:Agent>
      <dc:title>Matplotlib v3.4.3, https://matplotlib.org/</dc:title>
     </cc:Agent>
    </dc:creator>
   </cc:Work>
  </rdf:RDF>
 </metadata>
 <defs>
  <style type="text/css">*{stroke-linecap:butt;stroke-linejoin:round;}</style>
 </defs>
 <g id="figure_1">
  <g id="patch_1">
   <path d="M 0 491.04 
L 432 491.04 
L 432 0 
L 0 0 
z
" style="fill:#ffffff;"/>
  </g>
  <g id="axes_1">
   <g id="patch_2">
    <path d="M 54 437.0256 
L 388.8 437.0256 
L 388.8 58.9248 
L 54 58.9248 
z
" style="fill:#ffffff;"/>
   </g>
   <g id="matplotlib.axis_1">
    <g id="xtick_1">
     <g id="line2d_1">
      <path clip-path="url(#p1526042b97)" d="M 54 437.0256 
L 54 58.9248 
" style="fill:none;stroke:#b0b0b0;stroke-linecap:square;"/>
     </g>
     <g id="line2d_2">
      <defs>
       <path d="M 0 0 
L 0 3.5 
" id="m8b0ad2084c" style="stroke:#000000;stroke-width:0.8;"/>
      </defs>
      <g>
       <use style="stroke:#000000;stroke-width:0.8;" x="54" xlink:href="#m8b0ad2084c" y="437.0256"/>
      </g>
     </g>
     <g id="text_1">
      <!-- 0 -->
      <g transform="translate(50.81875 451.624038)scale(0.1 -0.1)">
       <defs>
        <path d="M 2034 4250 
Q 1547 4250 1301 3770 
Q 1056 3291 1056 2328 
Q 1056 1369 1301 889 
Q 1547 409 2034 409 
Q 2525 409 2770 889 
Q 3016 1369 3016 2328 
Q 3016 3291 2770 3770 
Q 2525 4250 2034 4250 
z
M 2034 4750 
Q 2819 4750 3233 4129 
Q 3647 3509 3647 2328 
Q 3647 1150 3233 529 
Q 2819 -91 2034 -91 
Q 1250 -91 836 529 
Q 422 1150 422 2328 
Q 422 3509 836 4129 
Q 1250 4750 2034 4750 
z
" id="DejaVuSans-30" transform="scale(0.015625)"/>
       </defs>
       <use xlink:href="#DejaVuSans-30"/>
      </g>
     </g>
    </g>
    <g id="xtick_2">
     <g id="line2d_3">
      <path clip-path="url(#p1526042b97)" d="M 109.708082 437.0256 
L 109.708082 58.9248 
" style="fill:none;stroke:#b0b0b0;stroke-linecap:square;"/>
     </g>
     <g id="line2d_4">
      <g>
       <use style="stroke:#000000;stroke-width:0.8;" x="109.708082" xlink:href="#m8b0ad2084c" y="437.0256"/>
      </g>
     </g>
     <g id="text_2">
      <!-- 2 -->
      <g transform="translate(106.526832 451.624038)scale(0.1 -0.1)">
       <defs>
        <path d="M 1228 531 
L 3431 531 
L 3431 0 
L 469 0 
L 469 531 
Q 828 903 1448 1529 
Q 2069 2156 2228 2338 
Q 2531 2678 2651 2914 
Q 2772 3150 2772 3378 
Q 2772 3750 2511 3984 
Q 2250 4219 1831 4219 
Q 1534 4219 1204 4116 
Q 875 4013 500 3803 
L 500 4441 
Q 881 4594 1212 4672 
Q 1544 4750 1819 4750 
Q 2544 4750 2975 4387 
Q 3406 4025 3406 3419 
Q 3406 3131 3298 2873 
Q 3191 2616 2906 2266 
Q 2828 2175 2409 1742 
Q 1991 1309 1228 531 
z
" id="DejaVuSans-32" transform="scale(0.015625)"/>
       </defs>
       <use xlink:href="#DejaVuSans-32"/>
      </g>
     </g>
    </g>
    <g id="xtick_3">
     <g id="line2d_5">
      <path clip-path="url(#p1526042b97)" d="M 165.416163 437.0256 
L 165.416163 58.9248 
" style="fill:none;stroke:#b0b0b0;stroke-linecap:square;"/>
     </g>
     <g id="line2d_6">
      <g>
       <use style="stroke:#000000;stroke-width:0.8;" x="165.416163" xlink:href="#m8b0ad2084c" y="437.0256"/>
      </g>
     </g>
     <g id="text_3">
      <!-- 4 -->
      <g transform="translate(162.234913 451.624038)scale(0.1 -0.1)">
       <defs>
        <path d="M 2419 4116 
L 825 1625 
L 2419 1625 
L 2419 4116 
z
M 2253 4666 
L 3047 4666 
L 3047 1625 
L 3713 1625 
L 3713 1100 
L 3047 1100 
L 3047 0 
L 2419 0 
L 2419 1100 
L 313 1100 
L 313 1709 
L 2253 4666 
z
" id="DejaVuSans-34" transform="scale(0.015625)"/>
       </defs>
       <use xlink:href="#DejaVuSans-34"/>
      </g>
     </g>
    </g>
    <g id="xtick_4">
     <g id="line2d_7">
      <path clip-path="url(#p1526042b97)" d="M 221.124245 437.0256 
L 221.124245 58.9248 
" style="fill:none;stroke:#b0b0b0;stroke-linecap:square;"/>
     </g>
     <g id="line2d_8">
      <g>
       <use style="stroke:#000000;stroke-width:0.8;" x="221.124245" xlink:href="#m8b0ad2084c" y="437.0256"/>
      </g>
     </g>
     <g id="text_4">
      <!-- 6 -->
      <g transform="translate(217.942995 451.624038)scale(0.1 -0.1)">
       <defs>
        <path d="M 2113 2584 
Q 1688 2584 1439 2293 
Q 1191 2003 1191 1497 
Q 1191 994 1439 701 
Q 1688 409 2113 409 
Q 2538 409 2786 701 
Q 3034 994 3034 1497 
Q 3034 2003 2786 2293 
Q 2538 2584 2113 2584 
z
M 3366 4563 
L 3366 3988 
Q 3128 4100 2886 4159 
Q 2644 4219 2406 4219 
Q 1781 4219 1451 3797 
Q 1122 3375 1075 2522 
Q 1259 2794 1537 2939 
Q 1816 3084 2150 3084 
Q 2853 3084 3261 2657 
Q 3669 2231 3669 1497 
Q 3669 778 3244 343 
Q 2819 -91 2113 -91 
Q 1303 -91 875 529 
Q 447 1150 447 2328 
Q 447 3434 972 4092 
Q 1497 4750 2381 4750 
Q 2619 4750 2861 4703 
Q 3103 4656 3366 4563 
z
" id="DejaVuSans-36" transform="scale(0.015625)"/>
       </defs>
       <use xlink:href="#DejaVuSans-36"/>
      </g>
     </g>
    </g>
    <g id="xtick_5">
     <g id="line2d_9">
      <path clip-path="url(#p1526042b97)" d="M 276.832327 437.0256 
L 276.832327 58.9248 
" style="fill:none;stroke:#b0b0b0;stroke-linecap:square;"/>
     </g>
     <g id="line2d_10">
      <g>
       <use style="stroke:#000000;stroke-width:0.8;" x="276.832327" xlink:href="#m8b0ad2084c" y="437.0256"/>
      </g>
     </g>
     <g id="text_5">
      <!-- 8 -->
      <g transform="translate(273.651077 451.624038)scale(0.1 -0.1)">
       <defs>
        <path d="M 2034 2216 
Q 1584 2216 1326 1975 
Q 1069 1734 1069 1313 
Q 1069 891 1326 650 
Q 1584 409 2034 409 
Q 2484 409 2743 651 
Q 3003 894 3003 1313 
Q 3003 1734 2745 1975 
Q 2488 2216 2034 2216 
z
M 1403 2484 
Q 997 2584 770 2862 
Q 544 3141 544 3541 
Q 544 4100 942 4425 
Q 1341 4750 2034 4750 
Q 2731 4750 3128 4425 
Q 3525 4100 3525 3541 
Q 3525 3141 3298 2862 
Q 3072 2584 2669 2484 
Q 3125 2378 3379 2068 
Q 3634 1759 3634 1313 
Q 3634 634 3220 271 
Q 2806 -91 2034 -91 
Q 1263 -91 848 271 
Q 434 634 434 1313 
Q 434 1759 690 2068 
Q 947 2378 1403 2484 
z
M 1172 3481 
Q 1172 3119 1398 2916 
Q 1625 2713 2034 2713 
Q 2441 2713 2670 2916 
Q 2900 3119 2900 3481 
Q 2900 3844 2670 4047 
Q 2441 4250 2034 4250 
Q 1625 4250 1398 4047 
Q 1172 3844 1172 3481 
z
" id="DejaVuSans-38" transform="scale(0.015625)"/>
       </defs>
       <use xlink:href="#DejaVuSans-38"/>
      </g>
     </g>
    </g>
    <g id="xtick_6">
     <g id="line2d_11">
      <path clip-path="url(#p1526042b97)" d="M 332.540408 437.0256 
L 332.540408 58.9248 
" style="fill:none;stroke:#b0b0b0;stroke-linecap:square;"/>
     </g>
     <g id="line2d_12">
      <g>
       <use style="stroke:#000000;stroke-width:0.8;" x="332.540408" xlink:href="#m8b0ad2084c" y="437.0256"/>
      </g>
     </g>
     <g id="text_6">
      <!-- 10 -->
      <g transform="translate(326.177908 451.624038)scale(0.1 -0.1)">
       <defs>
        <path d="M 794 531 
L 1825 531 
L 1825 4091 
L 703 3866 
L 703 4441 
L 1819 4666 
L 2450 4666 
L 2450 531 
L 3481 531 
L 3481 0 
L 794 0 
L 794 531 
z
" id="DejaVuSans-31" transform="scale(0.015625)"/>
       </defs>
       <use xlink:href="#DejaVuSans-31"/>
       <use x="63.623047" xlink:href="#DejaVuSans-30"/>
      </g>
     </g>
    </g>
    <g id="xtick_7">
     <g id="line2d_13">
      <path clip-path="url(#p1526042b97)" d="M 388.24849 437.0256 
L 388.24849 58.9248 
" style="fill:none;stroke:#b0b0b0;stroke-linecap:square;"/>
     </g>
     <g id="line2d_14">
      <g>
       <use style="stroke:#000000;stroke-width:0.8;" x="388.24849" xlink:href="#m8b0ad2084c" y="437.0256"/>
      </g>
     </g>
     <g id="text_7">
      <!-- 12 -->
      <g transform="translate(381.88599 451.624038)scale(0.1 -0.1)">
       <use xlink:href="#DejaVuSans-31"/>
       <use x="63.623047" xlink:href="#DejaVuSans-32"/>
      </g>
     </g>
    </g>
    <g id="xtick_8">
     <g id="line2d_15">
      <path clip-path="url(#p1526042b97)" d="M 67.92702 437.0256 
L 67.92702 58.9248 
" style="fill:none;stroke:#b0b0b0;stroke-linecap:square;stroke-width:0.3;"/>
     </g>
     <g id="line2d_16">
      <defs>
       <path d="M 0 0 
L 0 2 
" id="mc48ca462ec" style="stroke:#000000;stroke-width:0.6;"/>
      </defs>
      <g>
       <use style="stroke:#000000;stroke-width:0.6;" x="67.92702" xlink:href="#mc48ca462ec" y="437.0256"/>
      </g>
     </g>
    </g>
    <g id="xtick_9">
     <g id="line2d_17">
      <path clip-path="url(#p1526042b97)" d="M 81.854041 437.0256 
L 81.854041 58.9248 
" style="fill:none;stroke:#b0b0b0;stroke-linecap:square;stroke-width:0.3;"/>
     </g>
     <g id="line2d_18">
      <g>
       <use style="stroke:#000000;stroke-width:0.6;" x="81.854041" xlink:href="#mc48ca462ec" y="437.0256"/>
      </g>
     </g>
    </g>
    <g id="xtick_10">
     <g id="line2d_19">
      <path clip-path="url(#p1526042b97)" d="M 95.781061 437.0256 
L 95.781061 58.9248 
" style="fill:none;stroke:#b0b0b0;stroke-linecap:square;stroke-width:0.3;"/>
     </g>
     <g id="line2d_20">
      <g>
       <use style="stroke:#000000;stroke-width:0.6;" x="95.781061" xlink:href="#mc48ca462ec" y="437.0256"/>
      </g>
     </g>
    </g>
    <g id="xtick_11">
     <g id="line2d_21">
      <path clip-path="url(#p1526042b97)" d="M 123.635102 437.0256 
L 123.635102 58.9248 
" style="fill:none;stroke:#b0b0b0;stroke-linecap:square;stroke-width:0.3;"/>
     </g>
     <g id="line2d_22">
      <g>
       <use style="stroke:#000000;stroke-width:0.6;" x="123.635102" xlink:href="#mc48ca462ec" y="437.0256"/>
      </g>
     </g>
    </g>
    <g id="xtick_12">
     <g id="line2d_23">
      <path clip-path="url(#p1526042b97)" d="M 137.562122 437.0256 
L 137.562122 58.9248 
" style="fill:none;stroke:#b0b0b0;stroke-linecap:square;stroke-width:0.3;"/>
     </g>
     <g id="line2d_24">
      <g>
       <use style="stroke:#000000;stroke-width:0.6;" x="137.562122" xlink:href="#mc48ca462ec" y="437.0256"/>
      </g>
     </g>
    </g>
    <g id="xtick_13">
     <g id="line2d_25">
      <path clip-path="url(#p1526042b97)" d="M 151.489143 437.0256 
L 151.489143 58.9248 
" style="fill:none;stroke:#b0b0b0;stroke-linecap:square;stroke-width:0.3;"/>
     </g>
     <g id="line2d_26">
      <g>
       <use style="stroke:#000000;stroke-width:0.6;" x="151.489143" xlink:href="#mc48ca462ec" y="437.0256"/>
      </g>
     </g>
    </g>
    <g id="xtick_14">
     <g id="line2d_27">
      <path clip-path="url(#p1526042b97)" d="M 179.343184 437.0256 
L 179.343184 58.9248 
" style="fill:none;stroke:#b0b0b0;stroke-linecap:square;stroke-width:0.3;"/>
     </g>
     <g id="line2d_28">
      <g>
       <use style="stroke:#000000;stroke-width:0.6;" x="179.343184" xlink:href="#mc48ca462ec" y="437.0256"/>
      </g>
     </g>
    </g>
    <g id="xtick_15">
     <g id="line2d_29">
      <path clip-path="url(#p1526042b97)" d="M 193.270204 437.0256 
L 193.270204 58.9248 
" style="fill:none;stroke:#b0b0b0;stroke-linecap:square;stroke-width:0.3;"/>
     </g>
     <g id="line2d_30">
      <g>
       <use style="stroke:#000000;stroke-width:0.6;" x="193.270204" xlink:href="#mc48ca462ec" y="437.0256"/>
      </g>
     </g>
    </g>
    <g id="xtick_16">
     <g id="line2d_31">
      <path clip-path="url(#p1526042b97)" d="M 207.197225 437.0256 
L 207.197225 58.9248 
" style="fill:none;stroke:#b0b0b0;stroke-linecap:square;stroke-width:0.3;"/>
     </g>
     <g id="line2d_32">
      <g>
       <use style="stroke:#000000;stroke-width:0.6;" x="207.197225" xlink:href="#mc48ca462ec" y="437.0256"/>
      </g>
     </g>
    </g>
    <g id="xtick_17">
     <g id="line2d_33">
      <path clip-path="url(#p1526042b97)" d="M 235.051265 437.0256 
L 235.051265 58.9248 
" style="fill:none;stroke:#b0b0b0;stroke-linecap:square;stroke-width:0.3;"/>
     </g>
     <g id="line2d_34">
      <g>
       <use style="stroke:#000000;stroke-width:0.6;" x="235.051265" xlink:href="#mc48ca462ec" y="437.0256"/>
      </g>
     </g>
    </g>
    <g id="xtick_18">
     <g id="line2d_35">
      <path clip-path="url(#p1526042b97)" d="M 248.978286 437.0256 
L 248.978286 58.9248 
" style="fill:none;stroke:#b0b0b0;stroke-linecap:square;stroke-width:0.3;"/>
     </g>
     <g id="line2d_36">
      <g>
       <use style="stroke:#000000;stroke-width:0.6;" x="248.978286" xlink:href="#mc48ca462ec" y="437.0256"/>
      </g>
     </g>
    </g>
    <g id="xtick_19">
     <g id="line2d_37">
      <path clip-path="url(#p1526042b97)" d="M 262.905306 437.0256 
L 262.905306 58.9248 
" style="fill:none;stroke:#b0b0b0;stroke-linecap:square;stroke-width:0.3;"/>
     </g>
     <g id="line2d_38">
      <g>
       <use style="stroke:#000000;stroke-width:0.6;" x="262.905306" xlink:href="#mc48ca462ec" y="437.0256"/>
      </g>
     </g>
    </g>
    <g id="xtick_20">
     <g id="line2d_39">
      <path clip-path="url(#p1526042b97)" d="M 290.759347 437.0256 
L 290.759347 58.9248 
" style="fill:none;stroke:#b0b0b0;stroke-linecap:square;stroke-width:0.3;"/>
     </g>
     <g id="line2d_40">
      <g>
       <use style="stroke:#000000;stroke-width:0.6;" x="290.759347" xlink:href="#mc48ca462ec" y="437.0256"/>
      </g>
     </g>
    </g>
    <g id="xtick_21">
     <g id="line2d_41">
      <path clip-path="url(#p1526042b97)" d="M 304.686367 437.0256 
L 304.686367 58.9248 
" style="fill:none;stroke:#b0b0b0;stroke-linecap:square;stroke-width:0.3;"/>
     </g>
     <g id="line2d_42">
      <g>
       <use style="stroke:#000000;stroke-width:0.6;" x="304.686367" xlink:href="#mc48ca462ec" y="437.0256"/>
      </g>
     </g>
    </g>
    <g id="xtick_22">
     <g id="line2d_43">
      <path clip-path="url(#p1526042b97)" d="M 318.613388 437.0256 
L 318.613388 58.9248 
" style="fill:none;stroke:#b0b0b0;stroke-linecap:square;stroke-width:0.3;"/>
     </g>
     <g id="line2d_44">
      <g>
       <use style="stroke:#000000;stroke-width:0.6;" x="318.613388" xlink:href="#mc48ca462ec" y="437.0256"/>
      </g>
     </g>
    </g>
    <g id="xtick_23">
     <g id="line2d_45">
      <path clip-path="url(#p1526042b97)" d="M 346.467429 437.0256 
L 346.467429 58.9248 
" style="fill:none;stroke:#b0b0b0;stroke-linecap:square;stroke-width:0.3;"/>
     </g>
     <g id="line2d_46">
      <g>
       <use style="stroke:#000000;stroke-width:0.6;" x="346.467429" xlink:href="#mc48ca462ec" y="437.0256"/>
      </g>
     </g>
    </g>
    <g id="xtick_24">
     <g id="line2d_47">
      <path clip-path="url(#p1526042b97)" d="M 360.394449 437.0256 
L 360.394449 58.9248 
" style="fill:none;stroke:#b0b0b0;stroke-linecap:square;stroke-width:0.3;"/>
     </g>
     <g id="line2d_48">
      <g>
       <use style="stroke:#000000;stroke-width:0.6;" x="360.394449" xlink:href="#mc48ca462ec" y="437.0256"/>
      </g>
     </g>
    </g>
    <g id="xtick_25">
     <g id="line2d_49">
      <path clip-path="url(#p1526042b97)" d="M 374.32147 437.0256 
L 374.32147 58.9248 
" style="fill:none;stroke:#b0b0b0;stroke-linecap:square;stroke-width:0.3;"/>
     </g>
     <g id="line2d_50">
      <g>
       <use style="stroke:#000000;stroke-width:0.6;" x="374.32147" xlink:href="#mc48ca462ec" y="437.0256"/>
      </g>
     </g>
    </g>
    <g id="text_8">
     <!-- Time, sec -->
     <g transform="translate(197.557813 465.302163)scale(0.1 -0.1)">
      <defs>
       <path d="M -19 4666 
L 3928 4666 
L 3928 4134 
L 2272 4134 
L 2272 0 
L 1638 0 
L 1638 4134 
L -19 4134 
L -19 4666 
z
" id="DejaVuSans-54" transform="scale(0.015625)"/>
       <path d="M 603 3500 
L 1178 3500 
L 1178 0 
L 603 0 
L 603 3500 
z
M 603 4863 
L 1178 4863 
L 1178 4134 
L 603 4134 
L 603 4863 
z
" id="DejaVuSans-69" transform="scale(0.015625)"/>
       <path d="M 3328 2828 
Q 3544 3216 3844 3400 
Q 4144 3584 4550 3584 
Q 5097 3584 5394 3201 
Q 5691 2819 5691 2113 
L 5691 0 
L 5113 0 
L 5113 2094 
Q 5113 2597 4934 2840 
Q 4756 3084 4391 3084 
Q 3944 3084 3684 2787 
Q 3425 2491 3425 1978 
L 3425 0 
L 2847 0 
L 2847 2094 
Q 2847 2600 2669 2842 
Q 2491 3084 2119 3084 
Q 1678 3084 1418 2786 
Q 1159 2488 1159 1978 
L 1159 0 
L 581 0 
L 581 3500 
L 1159 3500 
L 1159 2956 
Q 1356 3278 1631 3431 
Q 1906 3584 2284 3584 
Q 2666 3584 2933 3390 
Q 3200 3197 3328 2828 
z
" id="DejaVuSans-6d" transform="scale(0.015625)"/>
       <path d="M 3597 1894 
L 3597 1613 
L 953 1613 
Q 991 1019 1311 708 
Q 1631 397 2203 397 
Q 2534 397 2845 478 
Q 3156 559 3463 722 
L 3463 178 
Q 3153 47 2828 -22 
Q 2503 -91 2169 -91 
Q 1331 -91 842 396 
Q 353 884 353 1716 
Q 353 2575 817 3079 
Q 1281 3584 2069 3584 
Q 2775 3584 3186 3129 
Q 3597 2675 3597 1894 
z
M 3022 2063 
Q 3016 2534 2758 2815 
Q 2500 3097 2075 3097 
Q 1594 3097 1305 2825 
Q 1016 2553 972 2059 
L 3022 2063 
z
" id="DejaVuSans-65" transform="scale(0.015625)"/>
       <path d="M 750 794 
L 1409 794 
L 1409 256 
L 897 -744 
L 494 -744 
L 750 256 
L 750 794 
z
" id="DejaVuSans-2c" transform="scale(0.015625)"/>
       <path id="DejaVuSans-20" transform="scale(0.015625)"/>
       <path d="M 2834 3397 
L 2834 2853 
Q 2591 2978 2328 3040 
Q 2066 3103 1784 3103 
Q 1356 3103 1142 2972 
Q 928 2841 928 2578 
Q 928 2378 1081 2264 
Q 1234 2150 1697 2047 
L 1894 2003 
Q 2506 1872 2764 1633 
Q 3022 1394 3022 966 
Q 3022 478 2636 193 
Q 2250 -91 1575 -91 
Q 1294 -91 989 -36 
Q 684 19 347 128 
L 347 722 
Q 666 556 975 473 
Q 1284 391 1588 391 
Q 1994 391 2212 530 
Q 2431 669 2431 922 
Q 2431 1156 2273 1281 
Q 2116 1406 1581 1522 
L 1381 1569 
Q 847 1681 609 1914 
Q 372 2147 372 2553 
Q 372 3047 722 3315 
Q 1072 3584 1716 3584 
Q 2034 3584 2315 3537 
Q 2597 3491 2834 3397 
z
" id="DejaVuSans-73" transform="scale(0.015625)"/>
       <path d="M 3122 3366 
L 3122 2828 
Q 2878 2963 2633 3030 
Q 2388 3097 2138 3097 
Q 1578 3097 1268 2742 
Q 959 2388 959 1747 
Q 959 1106 1268 751 
Q 1578 397 2138 397 
Q 2388 397 2633 464 
Q 2878 531 3122 666 
L 3122 134 
Q 2881 22 2623 -34 
Q 2366 -91 2075 -91 
Q 1284 -91 818 406 
Q 353 903 353 1747 
Q 353 2603 823 3093 
Q 1294 3584 2113 3584 
Q 2378 3584 2631 3529 
Q 2884 3475 3122 3366 
z
" id="DejaVuSans-63" transform="scale(0.015625)"/>
      </defs>
      <use xlink:href="#DejaVuSans-54"/>
      <use x="57.958984" xlink:href="#DejaVuSans-69"/>
      <use x="85.742188" xlink:href="#DejaVuSans-6d"/>
      <use x="183.154297" xlink:href="#DejaVuSans-65"/>
      <use x="244.677734" xlink:href="#DejaVuSans-2c"/>
      <use x="276.464844" xlink:href="#DejaVuSans-20"/>
      <use x="308.251953" xlink:href="#DejaVuSans-73"/>
      <use x="360.351562" xlink:href="#DejaVuSans-65"/>
      <use x="421.875" xlink:href="#DejaVuSans-63"/>
     </g>
    </g>
   </g>
   <g id="matplotlib.axis_2">
    <g id="ytick_1">
     <g id="line2d_51">
      <path clip-path="url(#p1526042b97)" d="M 54 368.69918 
L 388.8 368.69918 
" style="fill:none;stroke:#b0b0b0;stroke-linecap:square;"/>
     </g>
     <g id="line2d_52">
      <defs>
       <path d="M 0 0 
L -3.5 0 
" id="m8704293aed" style="stroke:#000000;stroke-width:0.8;"/>
      </defs>
      <g>
       <use style="stroke:#000000;stroke-width:0.8;" x="54" xlink:href="#m8704293aed" y="368.69918"/>
      </g>
     </g>
     <g id="text_9">
      <!-- 0.5 -->
      <g transform="translate(31.096875 372.498399)scale(0.1 -0.1)">
       <defs>
        <path d="M 684 794 
L 1344 794 
L 1344 0 
L 684 0 
L 684 794 
z
" id="DejaVuSans-2e" transform="scale(0.015625)"/>
        <path d="M 691 4666 
L 3169 4666 
L 3169 4134 
L 1269 4134 
L 1269 2991 
Q 1406 3038 1543 3061 
Q 1681 3084 1819 3084 
Q 2600 3084 3056 2656 
Q 3513 2228 3513 1497 
Q 3513 744 3044 326 
Q 2575 -91 1722 -91 
Q 1428 -91 1123 -41 
Q 819 9 494 109 
L 494 744 
Q 775 591 1075 516 
Q 1375 441 1709 441 
Q 2250 441 2565 725 
Q 2881 1009 2881 1497 
Q 2881 1984 2565 2268 
Q 2250 2553 1709 2553 
Q 1456 2553 1204 2497 
Q 953 2441 691 2322 
L 691 4666 
z
" id="DejaVuSans-35" transform="scale(0.015625)"/>
       </defs>
       <use xlink:href="#DejaVuSans-30"/>
       <use x="63.623047" xlink:href="#DejaVuSans-2e"/>
       <use x="95.410156" xlink:href="#DejaVuSans-35"/>
      </g>
     </g>
    </g>
    <g id="ytick_2">
     <g id="line2d_53">
      <path clip-path="url(#p1526042b97)" d="M 54 298.835766 
L 388.8 298.835766 
" style="fill:none;stroke:#b0b0b0;stroke-linecap:square;"/>
     </g>
     <g id="line2d_54">
      <g>
       <use style="stroke:#000000;stroke-width:0.8;" x="54" xlink:href="#m8704293aed" y="298.835766"/>
      </g>
     </g>
     <g id="text_10">
      <!-- 1.0 -->
      <g transform="translate(31.096875 302.634985)scale(0.1 -0.1)">
       <use xlink:href="#DejaVuSans-31"/>
       <use x="63.623047" xlink:href="#DejaVuSans-2e"/>
       <use x="95.410156" xlink:href="#DejaVuSans-30"/>
      </g>
     </g>
    </g>
    <g id="ytick_3">
     <g id="line2d_55">
      <path clip-path="url(#p1526042b97)" d="M 54 228.972351 
L 388.8 228.972351 
" style="fill:none;stroke:#b0b0b0;stroke-linecap:square;"/>
     </g>
     <g id="line2d_56">
      <g>
       <use style="stroke:#000000;stroke-width:0.8;" x="54" xlink:href="#m8704293aed" y="228.972351"/>
      </g>
     </g>
     <g id="text_11">
      <!-- 1.5 -->
      <g transform="translate(31.096875 232.77157)scale(0.1 -0.1)">
       <use xlink:href="#DejaVuSans-31"/>
       <use x="63.623047" xlink:href="#DejaVuSans-2e"/>
       <use x="95.410156" xlink:href="#DejaVuSans-35"/>
      </g>
     </g>
    </g>
    <g id="ytick_4">
     <g id="line2d_57">
      <path clip-path="url(#p1526042b97)" d="M 54 159.108937 
L 388.8 159.108937 
" style="fill:none;stroke:#b0b0b0;stroke-linecap:square;"/>
     </g>
     <g id="line2d_58">
      <g>
       <use style="stroke:#000000;stroke-width:0.8;" x="54" xlink:href="#m8704293aed" y="159.108937"/>
      </g>
     </g>
     <g id="text_12">
      <!-- 2.0 -->
      <g transform="translate(31.096875 162.908155)scale(0.1 -0.1)">
       <use xlink:href="#DejaVuSans-32"/>
       <use x="63.623047" xlink:href="#DejaVuSans-2e"/>
       <use x="95.410156" xlink:href="#DejaVuSans-30"/>
      </g>
     </g>
    </g>
    <g id="ytick_5">
     <g id="line2d_59">
      <path clip-path="url(#p1526042b97)" d="M 54 89.245522 
L 388.8 89.245522 
" style="fill:none;stroke:#b0b0b0;stroke-linecap:square;"/>
     </g>
     <g id="line2d_60">
      <g>
       <use style="stroke:#000000;stroke-width:0.8;" x="54" xlink:href="#m8704293aed" y="89.245522"/>
      </g>
     </g>
     <g id="text_13">
      <!-- 2.5 -->
      <g transform="translate(31.096875 93.044741)scale(0.1 -0.1)">
       <use xlink:href="#DejaVuSans-32"/>
       <use x="63.623047" xlink:href="#DejaVuSans-2e"/>
       <use x="95.410156" xlink:href="#DejaVuSans-35"/>
      </g>
     </g>
    </g>
    <g id="ytick_6">
     <g id="line2d_61">
      <path clip-path="url(#p1526042b97)" d="M 54 424.589912 
L 388.8 424.589912 
" style="fill:none;stroke:#b0b0b0;stroke-linecap:square;stroke-width:0.3;"/>
     </g>
     <g id="line2d_62">
      <defs>
       <path d="M 0 0 
L -2 0 
" id="m7bfb133104" style="stroke:#000000;stroke-width:0.6;"/>
      </defs>
      <g>
       <use style="stroke:#000000;stroke-width:0.6;" x="54" xlink:href="#m7bfb133104" y="424.589912"/>
      </g>
     </g>
    </g>
    <g id="ytick_7">
     <g id="line2d_63">
      <path clip-path="url(#p1526042b97)" d="M 54 410.617229 
L 388.8 410.617229 
" style="fill:none;stroke:#b0b0b0;stroke-linecap:square;stroke-width:0.3;"/>
     </g>
     <g id="line2d_64">
      <g>
       <use style="stroke:#000000;stroke-width:0.6;" x="54" xlink:href="#m7bfb133104" y="410.617229"/>
      </g>
     </g>
    </g>
    <g id="ytick_8">
     <g id="line2d_65">
      <path clip-path="url(#p1526042b97)" d="M 54 396.644546 
L 388.8 396.644546 
" style="fill:none;stroke:#b0b0b0;stroke-linecap:square;stroke-width:0.3;"/>
     </g>
     <g id="line2d_66">
      <g>
       <use style="stroke:#000000;stroke-width:0.6;" x="54" xlink:href="#m7bfb133104" y="396.644546"/>
      </g>
     </g>
    </g>
    <g id="ytick_9">
     <g id="line2d_67">
      <path clip-path="url(#p1526042b97)" d="M 54 382.671863 
L 388.8 382.671863 
" style="fill:none;stroke:#b0b0b0;stroke-linecap:square;stroke-width:0.3;"/>
     </g>
     <g id="line2d_68">
      <g>
       <use style="stroke:#000000;stroke-width:0.6;" x="54" xlink:href="#m7bfb133104" y="382.671863"/>
      </g>
     </g>
    </g>
    <g id="ytick_10">
     <g id="line2d_69">
      <path clip-path="url(#p1526042b97)" d="M 54 354.726498 
L 388.8 354.726498 
" style="fill:none;stroke:#b0b0b0;stroke-linecap:square;stroke-width:0.3;"/>
     </g>
     <g id="line2d_70">
      <g>
       <use style="stroke:#000000;stroke-width:0.6;" x="54" xlink:href="#m7bfb133104" y="354.726498"/>
      </g>
     </g>
    </g>
    <g id="ytick_11">
     <g id="line2d_71">
      <path clip-path="url(#p1526042b97)" d="M 54 340.753815 
L 388.8 340.753815 
" style="fill:none;stroke:#b0b0b0;stroke-linecap:square;stroke-width:0.3;"/>
     </g>
     <g id="line2d_72">
      <g>
       <use style="stroke:#000000;stroke-width:0.6;" x="54" xlink:href="#m7bfb133104" y="340.753815"/>
      </g>
     </g>
    </g>
    <g id="ytick_12">
     <g id="line2d_73">
      <path clip-path="url(#p1526042b97)" d="M 54 326.781132 
L 388.8 326.781132 
" style="fill:none;stroke:#b0b0b0;stroke-linecap:square;stroke-width:0.3;"/>
     </g>
     <g id="line2d_74">
      <g>
       <use style="stroke:#000000;stroke-width:0.6;" x="54" xlink:href="#m7bfb133104" y="326.781132"/>
      </g>
     </g>
    </g>
    <g id="ytick_13">
     <g id="line2d_75">
      <path clip-path="url(#p1526042b97)" d="M 54 312.808449 
L 388.8 312.808449 
" style="fill:none;stroke:#b0b0b0;stroke-linecap:square;stroke-width:0.3;"/>
     </g>
     <g id="line2d_76">
      <g>
       <use style="stroke:#000000;stroke-width:0.6;" x="54" xlink:href="#m7bfb133104" y="312.808449"/>
      </g>
     </g>
    </g>
    <g id="ytick_14">
     <g id="line2d_77">
      <path clip-path="url(#p1526042b97)" d="M 54 284.863083 
L 388.8 284.863083 
" style="fill:none;stroke:#b0b0b0;stroke-linecap:square;stroke-width:0.3;"/>
     </g>
     <g id="line2d_78">
      <g>
       <use style="stroke:#000000;stroke-width:0.6;" x="54" xlink:href="#m7bfb133104" y="284.863083"/>
      </g>
     </g>
    </g>
    <g id="ytick_15">
     <g id="line2d_79">
      <path clip-path="url(#p1526042b97)" d="M 54 270.8904 
L 388.8 270.8904 
" style="fill:none;stroke:#b0b0b0;stroke-linecap:square;stroke-width:0.3;"/>
     </g>
     <g id="line2d_80">
      <g>
       <use style="stroke:#000000;stroke-width:0.6;" x="54" xlink:href="#m7bfb133104" y="270.8904"/>
      </g>
     </g>
    </g>
    <g id="ytick_16">
     <g id="line2d_81">
      <path clip-path="url(#p1526042b97)" d="M 54 256.917717 
L 388.8 256.917717 
" style="fill:none;stroke:#b0b0b0;stroke-linecap:square;stroke-width:0.3;"/>
     </g>
     <g id="line2d_82">
      <g>
       <use style="stroke:#000000;stroke-width:0.6;" x="54" xlink:href="#m7bfb133104" y="256.917717"/>
      </g>
     </g>
    </g>
    <g id="ytick_17">
     <g id="line2d_83">
      <path clip-path="url(#p1526042b97)" d="M 54 242.945034 
L 388.8 242.945034 
" style="fill:none;stroke:#b0b0b0;stroke-linecap:square;stroke-width:0.3;"/>
     </g>
     <g id="line2d_84">
      <g>
       <use style="stroke:#000000;stroke-width:0.6;" x="54" xlink:href="#m7bfb133104" y="242.945034"/>
      </g>
     </g>
    </g>
    <g id="ytick_18">
     <g id="line2d_85">
      <path clip-path="url(#p1526042b97)" d="M 54 214.999668 
L 388.8 214.999668 
" style="fill:none;stroke:#b0b0b0;stroke-linecap:square;stroke-width:0.3;"/>
     </g>
     <g id="line2d_86">
      <g>
       <use style="stroke:#000000;stroke-width:0.6;" x="54" xlink:href="#m7bfb133104" y="214.999668"/>
      </g>
     </g>
    </g>
    <g id="ytick_19">
     <g id="line2d_87">
      <path clip-path="url(#p1526042b97)" d="M 54 201.026985 
L 388.8 201.026985 
" style="fill:none;stroke:#b0b0b0;stroke-linecap:square;stroke-width:0.3;"/>
     </g>
     <g id="line2d_88">
      <g>
       <use style="stroke:#000000;stroke-width:0.6;" x="54" xlink:href="#m7bfb133104" y="201.026985"/>
      </g>
     </g>
    </g>
    <g id="ytick_20">
     <g id="line2d_89">
      <path clip-path="url(#p1526042b97)" d="M 54 187.054302 
L 388.8 187.054302 
" style="fill:none;stroke:#b0b0b0;stroke-linecap:square;stroke-width:0.3;"/>
     </g>
     <g id="line2d_90">
      <g>
       <use style="stroke:#000000;stroke-width:0.6;" x="54" xlink:href="#m7bfb133104" y="187.054302"/>
      </g>
     </g>
    </g>
    <g id="ytick_21">
     <g id="line2d_91">
      <path clip-path="url(#p1526042b97)" d="M 54 173.08162 
L 388.8 173.08162 
" style="fill:none;stroke:#b0b0b0;stroke-linecap:square;stroke-width:0.3;"/>
     </g>
     <g id="line2d_92">
      <g>
       <use style="stroke:#000000;stroke-width:0.6;" x="54" xlink:href="#m7bfb133104" y="173.08162"/>
      </g>
     </g>
    </g>
    <g id="ytick_22">
     <g id="line2d_93">
      <path clip-path="url(#p1526042b97)" d="M 54 145.136254 
L 388.8 145.136254 
" style="fill:none;stroke:#b0b0b0;stroke-linecap:square;stroke-width:0.3;"/>
     </g>
     <g id="line2d_94">
      <g>
       <use style="stroke:#000000;stroke-width:0.6;" x="54" xlink:href="#m7bfb133104" y="145.136254"/>
      </g>
     </g>
    </g>
    <g id="ytick_23">
     <g id="line2d_95">
      <path clip-path="url(#p1526042b97)" d="M 54 131.163571 
L 388.8 131.163571 
" style="fill:none;stroke:#b0b0b0;stroke-linecap:square;stroke-width:0.3;"/>
     </g>
     <g id="line2d_96">
      <g>
       <use style="stroke:#000000;stroke-width:0.6;" x="54" xlink:href="#m7bfb133104" y="131.163571"/>
      </g>
     </g>
    </g>
    <g id="ytick_24">
     <g id="line2d_97">
      <path clip-path="url(#p1526042b97)" d="M 54 117.190888 
L 388.8 117.190888 
" style="fill:none;stroke:#b0b0b0;stroke-linecap:square;stroke-width:0.3;"/>
     </g>
     <g id="line2d_98">
      <g>
       <use style="stroke:#000000;stroke-width:0.6;" x="54" xlink:href="#m7bfb133104" y="117.190888"/>
      </g>
     </g>
    </g>
    <g id="ytick_25">
     <g id="line2d_99">
      <path clip-path="url(#p1526042b97)" d="M 54 103.218205 
L 388.8 103.218205 
" style="fill:none;stroke:#b0b0b0;stroke-linecap:square;stroke-width:0.3;"/>
     </g>
     <g id="line2d_100">
      <g>
       <use style="stroke:#000000;stroke-width:0.6;" x="54" xlink:href="#m7bfb133104" y="103.218205"/>
      </g>
     </g>
    </g>
    <g id="ytick_26">
     <g id="line2d_101">
      <path clip-path="url(#p1526042b97)" d="M 54 75.272839 
L 388.8 75.272839 
" style="fill:none;stroke:#b0b0b0;stroke-linecap:square;stroke-width:0.3;"/>
     </g>
     <g id="line2d_102">
      <g>
       <use style="stroke:#000000;stroke-width:0.6;" x="54" xlink:href="#m7bfb133104" y="75.272839"/>
      </g>
     </g>
    </g>
    <g id="ytick_27">
     <g id="line2d_103">
      <path clip-path="url(#p1526042b97)" d="M 54 61.300156 
L 388.8 61.300156 
" style="fill:none;stroke:#b0b0b0;stroke-linecap:square;stroke-width:0.3;"/>
     </g>
     <g id="line2d_104">
      <g>
       <use style="stroke:#000000;stroke-width:0.6;" x="54" xlink:href="#m7bfb133104" y="61.300156"/>
      </g>
     </g>
    </g>
    <g id="text_14">
     <!-- Voltage, V -->
     <g transform="translate(25.017187 273.329888)rotate(-90)scale(0.1 -0.1)">
      <defs>
       <path d="M 1831 0 
L 50 4666 
L 709 4666 
L 2188 738 
L 3669 4666 
L 4325 4666 
L 2547 0 
L 1831 0 
z
" id="DejaVuSans-56" transform="scale(0.015625)"/>
       <path d="M 1959 3097 
Q 1497 3097 1228 2736 
Q 959 2375 959 1747 
Q 959 1119 1226 758 
Q 1494 397 1959 397 
Q 2419 397 2687 759 
Q 2956 1122 2956 1747 
Q 2956 2369 2687 2733 
Q 2419 3097 1959 3097 
z
M 1959 3584 
Q 2709 3584 3137 3096 
Q 3566 2609 3566 1747 
Q 3566 888 3137 398 
Q 2709 -91 1959 -91 
Q 1206 -91 779 398 
Q 353 888 353 1747 
Q 353 2609 779 3096 
Q 1206 3584 1959 3584 
z
" id="DejaVuSans-6f" transform="scale(0.015625)"/>
       <path d="M 603 4863 
L 1178 4863 
L 1178 0 
L 603 0 
L 603 4863 
z
" id="DejaVuSans-6c" transform="scale(0.015625)"/>
       <path d="M 1172 4494 
L 1172 3500 
L 2356 3500 
L 2356 3053 
L 1172 3053 
L 1172 1153 
Q 1172 725 1289 603 
Q 1406 481 1766 481 
L 2356 481 
L 2356 0 
L 1766 0 
Q 1100 0 847 248 
Q 594 497 594 1153 
L 594 3053 
L 172 3053 
L 172 3500 
L 594 3500 
L 594 4494 
L 1172 4494 
z
" id="DejaVuSans-74" transform="scale(0.015625)"/>
       <path d="M 2194 1759 
Q 1497 1759 1228 1600 
Q 959 1441 959 1056 
Q 959 750 1161 570 
Q 1363 391 1709 391 
Q 2188 391 2477 730 
Q 2766 1069 2766 1631 
L 2766 1759 
L 2194 1759 
z
M 3341 1997 
L 3341 0 
L 2766 0 
L 2766 531 
Q 2569 213 2275 61 
Q 1981 -91 1556 -91 
Q 1019 -91 701 211 
Q 384 513 384 1019 
Q 384 1609 779 1909 
Q 1175 2209 1959 2209 
L 2766 2209 
L 2766 2266 
Q 2766 2663 2505 2880 
Q 2244 3097 1772 3097 
Q 1472 3097 1187 3025 
Q 903 2953 641 2809 
L 641 3341 
Q 956 3463 1253 3523 
Q 1550 3584 1831 3584 
Q 2591 3584 2966 3190 
Q 3341 2797 3341 1997 
z
" id="DejaVuSans-61" transform="scale(0.015625)"/>
       <path d="M 2906 1791 
Q 2906 2416 2648 2759 
Q 2391 3103 1925 3103 
Q 1463 3103 1205 2759 
Q 947 2416 947 1791 
Q 947 1169 1205 825 
Q 1463 481 1925 481 
Q 2391 481 2648 825 
Q 2906 1169 2906 1791 
z
M 3481 434 
Q 3481 -459 3084 -895 
Q 2688 -1331 1869 -1331 
Q 1566 -1331 1297 -1286 
Q 1028 -1241 775 -1147 
L 775 -588 
Q 1028 -725 1275 -790 
Q 1522 -856 1778 -856 
Q 2344 -856 2625 -561 
Q 2906 -266 2906 331 
L 2906 616 
Q 2728 306 2450 153 
Q 2172 0 1784 0 
Q 1141 0 747 490 
Q 353 981 353 1791 
Q 353 2603 747 3093 
Q 1141 3584 1784 3584 
Q 2172 3584 2450 3431 
Q 2728 3278 2906 2969 
L 2906 3500 
L 3481 3500 
L 3481 434 
z
" id="DejaVuSans-67" transform="scale(0.015625)"/>
      </defs>
      <use xlink:href="#DejaVuSans-56"/>
      <use x="60.658203" xlink:href="#DejaVuSans-6f"/>
      <use x="121.839844" xlink:href="#DejaVuSans-6c"/>
      <use x="149.623047" xlink:href="#DejaVuSans-74"/>
      <use x="188.832031" xlink:href="#DejaVuSans-61"/>
      <use x="250.111328" xlink:href="#DejaVuSans-67"/>
      <use x="313.587891" xlink:href="#DejaVuSans-65"/>
      <use x="375.111328" xlink:href="#DejaVuSans-2c"/>
      <use x="406.898438" xlink:href="#DejaVuSans-20"/>
      <use x="438.685547" xlink:href="#DejaVuSans-56"/>
     </g>
    </g>
   </g>
   <g id="line2d_105">
    <path clip-path="url(#p1526042b97)" d="M 54 437.0256 
L 54.373244 430.87762 
L 55.492977 421.655649 
L 55.866221 415.507668 
L 56.612709 409.359688 
L 56.985953 403.211707 
L 57.359197 403.211707 
L 57.732441 397.063727 
L 58.105686 397.063727 
L 58.47893 390.915746 
L 58.852174 390.915746 
L 59.225418 381.693776 
L 64.077592 341.731902 
L 64.450836 341.731902 
L 64.82408 335.583922 
L 66.317057 323.287961 
L 66.690301 323.287961 
L 67.063545 317.13998 
L 67.436789 317.13998 
L 70.422742 292.548059 
L 70.795987 292.548059 
L 72.288963 280.252098 
L 72.662207 280.252098 
L 74.155184 267.956137 
L 74.528428 267.956137 
L 75.274916 261.808156 
L 75.648161 261.808156 
L 76.394649 255.660176 
L 76.767893 255.660176 
L 77.514381 249.512195 
L 77.887625 249.512195 
L 78.634114 243.364215 
L 79.380602 243.364215 
L 79.753846 237.216234 
L 80.12709 237.216234 
L 80.500334 234.142244 
L 80.873579 234.142244 
L 81.620067 227.994263 
L 81.993311 227.994263 
L 82.366555 224.920273 
L 82.739799 224.920273 
L 83.486288 218.772293 
L 84.232776 218.772293 
L 84.979264 212.624312 
L 85.725753 212.624312 
L 86.472241 206.476332 
L 86.845485 206.476332 
L 87.218729 203.402341 
L 87.591973 203.402341 
L 87.965217 200.328351 
L 88.338462 200.328351 
L 88.711706 197.254361 
L 89.08495 197.254361 
L 89.458194 194.180371 
L 90.577926 194.180371 
L 90.951171 188.03239 
L 91.697659 188.03239 
L 92.070903 184.9584 
L 92.444147 184.9584 
L 92.817391 181.88441 
L 93.56388 181.88441 
L 93.937124 178.81042 
L 94.310368 178.81042 
L 94.683612 175.736429 
L 95.056856 175.736429 
L 95.4301 172.662439 
L 96.549833 172.662439 
L 97.296321 166.514459 
L 98.042809 166.514459 
L 98.416054 163.440468 
L 99.162542 163.440468 
L 99.535786 160.366478 
L 99.90903 160.366478 
L 100.282274 157.292488 
L 101.402007 157.292488 
L 101.775251 154.218498 
L 102.148495 154.218498 
L 102.521739 151.144507 
L 103.268227 151.144507 
L 103.641472 148.070517 
L 104.761204 148.070517 
L 105.507692 141.922537 
L 107.747157 141.922537 
L 108.493645 135.774556 
L 109.986622 135.774556 
L 110.359866 132.700566 
L 111.479599 132.700566 
L 111.852843 129.626576 
L 112.599331 129.626576 
L 112.972575 126.552585 
L 113.719064 126.552585 
L 114.092308 123.478595 
L 115.585284 123.478595 
L 115.958528 120.404605 
L 117.451505 120.404605 
L 117.824749 117.330615 
L 119.317726 117.330615 
L 119.69097 114.256624 
L 121.183946 114.256624 
L 121.557191 111.182634 
L 122.303679 111.182634 
L 122.676923 108.108644 
L 123.050167 111.182634 
L 123.423411 108.108644 
L 124.543144 108.108644 
L 124.916388 105.034654 
L 127.529097 105.034654 
L 127.902341 101.960663 
L 129.768562 101.960663 
L 130.141806 98.886673 
L 132.008027 98.886673 
L 132.381271 95.812683 
L 133.874247 95.812683 
L 134.247492 92.738693 
L 138.353177 92.738693 
L 138.726421 89.664702 
L 141.712375 89.664702 
L 142.085619 86.590712 
L 142.458863 89.664702 
L 142.832107 86.590712 
L 144.698328 86.590712 
L 145.071572 83.516722 
L 145.444816 86.590712 
L 145.81806 83.516722 
L 149.177258 83.516722 
L 149.550502 80.442732 
L 152.909699 80.442732 
L 153.282943 77.368741 
L 156.64214 77.368741 
L 157.015385 74.294751 
L 157.388629 77.368741 
L 157.761873 77.368741 
L 158.135117 74.294751 
L 161.494314 74.294751 
L 161.867559 71.220761 
L 162.240803 74.294751 
L 162.614047 74.294751 
L 162.987291 71.220761 
L 163.360535 74.294751 
L 163.733779 74.294751 
L 164.107023 71.220761 
L 167.092977 71.220761 
L 167.466221 68.146771 
L 167.839465 71.220761 
L 168.212709 71.220761 
L 168.585953 68.146771 
L 168.959197 68.146771 
L 169.332441 71.220761 
L 170.452174 71.220761 
L 170.825418 68.146771 
L 177.917057 68.146771 
L 178.290301 65.07278 
L 178.663545 68.146771 
L 179.036789 65.07278 
L 187.248161 65.07278 
L 187.621405 61.99879 
L 187.994649 61.99879 
L 188.367893 65.07278 
L 188.741137 65.07278 
L 189.114381 61.99879 
L 189.487625 61.99879 
L 189.86087 65.07278 
L 190.234114 61.99879 
L 196.579264 61.99879 
L 196.952508 58.9248 
L 197.325753 65.07278 
L 197.698997 68.146771 
L 198.072241 68.146771 
L 198.445485 74.294751 
L 199.191973 80.442732 
L 199.565217 86.590712 
L 199.938462 86.590712 
L 200.311706 92.738693 
L 200.68495 92.738693 
L 201.058194 98.886673 
L 201.804682 105.034654 
L 202.177926 105.034654 
L 202.551171 111.182634 
L 202.924415 111.182634 
L 206.656856 141.922537 
L 207.0301 141.922537 
L 208.896321 157.292488 
L 209.269565 157.292488 
L 209.642809 163.440468 
L 210.016054 163.440468 
L 210.389298 166.514459 
L 210.762542 166.514459 
L 212.628763 181.88441 
L 213.002007 181.88441 
L 214.494983 194.180371 
L 214.868227 194.180371 
L 215.614716 200.328351 
L 215.98796 200.328351 
L 216.361204 203.402341 
L 216.734448 203.402341 
L 217.854181 212.624312 
L 218.227425 212.624312 
L 218.600669 215.698302 
L 218.973913 215.698302 
L 219.720401 221.846283 
L 220.093645 221.846283 
L 220.840134 227.994263 
L 221.213378 227.994263 
L 221.586622 231.068254 
L 221.959866 231.068254 
L 222.33311 234.142244 
L 222.706355 234.142244 
L 223.079599 237.216234 
L 223.452843 237.216234 
L 223.826087 240.290224 
L 224.199331 240.290224 
L 224.572575 243.364215 
L 224.945819 243.364215 
L 225.319064 246.438205 
L 225.692308 246.438205 
L 226.438796 252.586185 
L 227.185284 252.586185 
L 227.558528 255.660176 
L 227.931773 255.660176 
L 228.305017 258.734166 
L 228.678261 258.734166 
L 229.424749 264.882146 
L 230.171237 264.882146 
L 230.544482 267.956137 
L 230.917726 267.956137 
L 231.29097 271.030127 
L 231.664214 271.030127 
L 232.037458 274.104117 
L 232.410702 274.104117 
L 232.783946 277.178107 
L 233.530435 277.178107 
L 233.903679 280.252098 
L 234.276923 280.252098 
L 234.650167 283.326088 
L 235.023411 283.326088 
L 235.396656 286.400078 
L 235.7699 286.400078 
L 236.143144 289.474068 
L 237.262876 289.474068 
L 238.009365 295.622049 
L 238.755853 295.622049 
L 239.129097 298.696039 
L 239.502341 298.696039 
L 239.875585 301.770029 
L 240.995318 301.770029 
L 241.368562 304.84402 
L 241.741806 304.84402 
L 242.11505 307.91801 
L 242.861538 307.91801 
L 243.234783 310.992 
L 243.608027 310.992 
L 243.981271 314.06599 
L 244.727759 314.06599 
L 245.101003 317.13998 
L 246.220736 317.13998 
L 246.59398 320.213971 
L 247.340468 320.213971 
L 247.713712 323.287961 
L 248.460201 323.287961 
L 248.833445 326.361951 
L 249.953177 326.361951 
L 250.326421 329.435941 
L 250.699666 329.435941 
L 251.07291 332.509932 
L 252.192642 332.509932 
L 252.565886 335.583922 
L 253.312375 335.583922 
L 253.685619 338.657912 
L 254.058863 338.657912 
L 254.432107 341.731902 
L 256.671572 341.731902 
L 257.044816 344.805893 
L 257.791304 344.805893 
L 258.164548 347.879883 
L 258.911037 347.879883 
L 259.284281 350.953873 
L 260.777258 350.953873 
L 261.150502 354.027863 
L 262.270234 354.027863 
L 262.643478 357.101854 
L 263.389967 357.101854 
L 263.763211 360.175844 
L 265.256187 360.175844 
L 265.629431 363.249834 
L 267.122408 363.249834 
L 267.495652 366.323824 
L 267.868896 363.249834 
L 268.24214 366.323824 
L 268.988629 366.323824 
L 269.361873 369.397815 
L 270.854849 369.397815 
L 271.228094 372.471805 
L 272.72107 372.471805 
L 273.094314 375.545795 
L 274.587291 375.545795 
L 274.960535 378.619785 
L 277.2 378.619785 
L 277.573244 381.693776 
L 279.066221 381.693776 
L 279.439465 384.767766 
L 280.932441 384.767766 
L 281.305686 387.841756 
L 281.67893 384.767766 
L 282.052174 387.841756 
L 283.171906 387.841756 
L 283.545151 390.915746 
L 287.277592 390.915746 
L 287.650836 393.989737 
L 290.263545 393.989737 
L 290.636789 397.063727 
L 292.50301 397.063727 
L 292.876254 400.137717 
L 296.235452 400.137717 
L 296.608696 403.211707 
L 300.341137 403.211707 
L 300.714381 406.285698 
L 303.700334 406.285698 
L 304.073579 409.359688 
L 304.446823 406.285698 
L 304.820067 409.359688 
L 308.925753 409.359688 
L 309.298997 412.433678 
L 312.658194 412.433678 
L 313.031438 415.507668 
L 319.003344 415.507668 
L 319.376589 418.581659 
L 325.348495 418.581659 
L 325.721739 421.655649 
L 326.094983 418.581659 
L 326.468227 421.655649 
L 332.440134 421.655649 
L 332.813378 424.729639 
L 340.651505 424.729639 
L 341.024749 427.803629 
L 341.397993 424.729639 
L 342.517726 424.729639 
L 342.89097 427.803629 
L 343.264214 427.803629 
L 343.637458 424.729639 
L 344.010702 427.803629 
L 351.475585 427.803629 
L 351.848829 430.87762 
L 352.222074 427.803629 
L 355.208027 427.803629 
L 355.581271 430.87762 
L 356.327759 430.87762 
L 356.701003 427.803629 
L 357.074247 430.87762 
L 367.151839 430.87762 
L 367.525084 433.95161 
L 367.898328 430.87762 
L 368.644816 430.87762 
L 369.01806 433.95161 
L 388.426756 433.95161 
L 388.8 437.0256 
L 388.8 437.0256 
" style="fill:none;stroke:#ff00ff;stroke-linecap:square;stroke-width:0.9;"/>
    <defs>
     <path d="M 0 -3 
L -3 3 
L 3 3 
z
" id="m76362cae1f" style="stroke:#ff00ff;stroke-linejoin:miter;"/>
    </defs>
    <g clip-path="url(#p1526042b97)">
     <use style="fill:#ff00ff;stroke:#ff00ff;stroke-linejoin:miter;" x="54" xlink:href="#m76362cae1f" y="437.0256"/>
     <use style="fill:#ff00ff;stroke:#ff00ff;stroke-linejoin:miter;" x="72.662207" xlink:href="#m76362cae1f" y="280.252098"/>
     <use style="fill:#ff00ff;stroke:#ff00ff;stroke-linejoin:miter;" x="91.324415" xlink:href="#m76362cae1f" y="188.03239"/>
     <use style="fill:#ff00ff;stroke:#ff00ff;stroke-linejoin:miter;" x="109.986622" xlink:href="#m76362cae1f" y="135.774556"/>
     <use style="fill:#ff00ff;stroke:#ff00ff;stroke-linejoin:miter;" x="128.648829" xlink:href="#m76362cae1f" y="101.960663"/>
     <use style="fill:#ff00ff;stroke:#ff00ff;stroke-linejoin:miter;" x="147.311037" xlink:href="#m76362cae1f" y="83.516722"/>
     <use style="fill:#ff00ff;stroke:#ff00ff;stroke-linejoin:miter;" x="165.973244" xlink:href="#m76362cae1f" y="71.220761"/>
     <use style="fill:#ff00ff;stroke:#ff00ff;stroke-linejoin:miter;" x="184.635452" xlink:href="#m76362cae1f" y="65.07278"/>
     <use style="fill:#ff00ff;stroke:#ff00ff;stroke-linejoin:miter;" x="203.297659" xlink:href="#m76362cae1f" y="114.256624"/>
     <use style="fill:#ff00ff;stroke:#ff00ff;stroke-linejoin:miter;" x="221.959866" xlink:href="#m76362cae1f" y="231.068254"/>
     <use style="fill:#ff00ff;stroke:#ff00ff;stroke-linejoin:miter;" x="240.622074" xlink:href="#m76362cae1f" y="301.770029"/>
     <use style="fill:#ff00ff;stroke:#ff00ff;stroke-linejoin:miter;" x="259.284281" xlink:href="#m76362cae1f" y="350.953873"/>
     <use style="fill:#ff00ff;stroke:#ff00ff;stroke-linejoin:miter;" x="277.946488" xlink:href="#m76362cae1f" y="381.693776"/>
     <use style="fill:#ff00ff;stroke:#ff00ff;stroke-linejoin:miter;" x="296.608696" xlink:href="#m76362cae1f" y="403.211707"/>
     <use style="fill:#ff00ff;stroke:#ff00ff;stroke-linejoin:miter;" x="315.270903" xlink:href="#m76362cae1f" y="415.507668"/>
     <use style="fill:#ff00ff;stroke:#ff00ff;stroke-linejoin:miter;" x="333.93311" xlink:href="#m76362cae1f" y="424.729639"/>
     <use style="fill:#ff00ff;stroke:#ff00ff;stroke-linejoin:miter;" x="352.595318" xlink:href="#m76362cae1f" y="427.803629"/>
     <use style="fill:#ff00ff;stroke:#ff00ff;stroke-linejoin:miter;" x="371.257525" xlink:href="#m76362cae1f" y="433.95161"/>
    </g>
   </g>
   <g id="patch_3">
    <path d="M 54 437.0256 
L 54 58.9248 
" style="fill:none;stroke:#000000;stroke-linecap:square;stroke-linejoin:miter;stroke-width:0.8;"/>
   </g>
   <g id="patch_4">
    <path d="M 388.8 437.0256 
L 388.8 58.9248 
" style="fill:none;stroke:#000000;stroke-linecap:square;stroke-linejoin:miter;stroke-width:0.8;"/>
   </g>
   <g id="patch_5">
    <path d="M 54 437.0256 
L 388.8 437.0256 
" style="fill:none;stroke:#000000;stroke-linecap:square;stroke-linejoin:miter;stroke-width:0.8;"/>
   </g>
   <g id="patch_6">
    <path d="M 54 58.9248 
L 388.8 58.9248 
" style="fill:none;stroke:#000000;stroke-linecap:square;stroke-linejoin:miter;stroke-width:0.8;"/>
   </g>
   <g id="text_15">
    <!-- Time to charge the capacitor: 5.13 s -->
    <g transform="translate(221.124245 89.245522)scale(0.085 -0.085)">
     <defs>
      <path d="M 3513 2113 
L 3513 0 
L 2938 0 
L 2938 2094 
Q 2938 2591 2744 2837 
Q 2550 3084 2163 3084 
Q 1697 3084 1428 2787 
Q 1159 2491 1159 1978 
L 1159 0 
L 581 0 
L 581 4863 
L 1159 4863 
L 1159 2956 
Q 1366 3272 1645 3428 
Q 1925 3584 2291 3584 
Q 2894 3584 3203 3211 
Q 3513 2838 3513 2113 
z
" id="DejaVuSans-68" transform="scale(0.015625)"/>
      <path d="M 2631 2963 
Q 2534 3019 2420 3045 
Q 2306 3072 2169 3072 
Q 1681 3072 1420 2755 
Q 1159 2438 1159 1844 
L 1159 0 
L 581 0 
L 581 3500 
L 1159 3500 
L 1159 2956 
Q 1341 3275 1631 3429 
Q 1922 3584 2338 3584 
Q 2397 3584 2469 3576 
Q 2541 3569 2628 3553 
L 2631 2963 
z
" id="DejaVuSans-72" transform="scale(0.015625)"/>
      <path d="M 1159 525 
L 1159 -1331 
L 581 -1331 
L 581 3500 
L 1159 3500 
L 1159 2969 
Q 1341 3281 1617 3432 
Q 1894 3584 2278 3584 
Q 2916 3584 3314 3078 
Q 3713 2572 3713 1747 
Q 3713 922 3314 415 
Q 2916 -91 2278 -91 
Q 1894 -91 1617 61 
Q 1341 213 1159 525 
z
M 3116 1747 
Q 3116 2381 2855 2742 
Q 2594 3103 2138 3103 
Q 1681 3103 1420 2742 
Q 1159 2381 1159 1747 
Q 1159 1113 1420 752 
Q 1681 391 2138 391 
Q 2594 391 2855 752 
Q 3116 1113 3116 1747 
z
" id="DejaVuSans-70" transform="scale(0.015625)"/>
      <path d="M 750 794 
L 1409 794 
L 1409 0 
L 750 0 
L 750 794 
z
M 750 3309 
L 1409 3309 
L 1409 2516 
L 750 2516 
L 750 3309 
z
" id="DejaVuSans-3a" transform="scale(0.015625)"/>
      <path d="M 2597 2516 
Q 3050 2419 3304 2112 
Q 3559 1806 3559 1356 
Q 3559 666 3084 287 
Q 2609 -91 1734 -91 
Q 1441 -91 1130 -33 
Q 819 25 488 141 
L 488 750 
Q 750 597 1062 519 
Q 1375 441 1716 441 
Q 2309 441 2620 675 
Q 2931 909 2931 1356 
Q 2931 1769 2642 2001 
Q 2353 2234 1838 2234 
L 1294 2234 
L 1294 2753 
L 1863 2753 
Q 2328 2753 2575 2939 
Q 2822 3125 2822 3475 
Q 2822 3834 2567 4026 
Q 2313 4219 1838 4219 
Q 1578 4219 1281 4162 
Q 984 4106 628 3988 
L 628 4550 
Q 988 4650 1302 4700 
Q 1616 4750 1894 4750 
Q 2613 4750 3031 4423 
Q 3450 4097 3450 3541 
Q 3450 3153 3228 2886 
Q 3006 2619 2597 2516 
z
" id="DejaVuSans-33" transform="scale(0.015625)"/>
     </defs>
     <use xlink:href="#DejaVuSans-54"/>
     <use x="57.958984" xlink:href="#DejaVuSans-69"/>
     <use x="85.742188" xlink:href="#DejaVuSans-6d"/>
     <use x="183.154297" xlink:href="#DejaVuSans-65"/>
     <use x="244.677734" xlink:href="#DejaVuSans-20"/>
     <use x="276.464844" xlink:href="#DejaVuSans-74"/>
     <use x="315.673828" xlink:href="#DejaVuSans-6f"/>
     <use x="376.855469" xlink:href="#DejaVuSans-20"/>
     <use x="408.642578" xlink:href="#DejaVuSans-63"/>
     <use x="463.623047" xlink:href="#DejaVuSans-68"/>
     <use x="527.001953" xlink:href="#DejaVuSans-61"/>
     <use x="588.28125" xlink:href="#DejaVuSans-72"/>
     <use x="627.644531" xlink:href="#DejaVuSans-67"/>
     <use x="691.121094" xlink:href="#DejaVuSans-65"/>
     <use x="752.644531" xlink:href="#DejaVuSans-20"/>
     <use x="784.431641" xlink:href="#DejaVuSans-74"/>
     <use x="823.640625" xlink:href="#DejaVuSans-68"/>
     <use x="887.019531" xlink:href="#DejaVuSans-65"/>
     <use x="948.542969" xlink:href="#DejaVuSans-20"/>
     <use x="980.330078" xlink:href="#DejaVuSans-63"/>
     <use x="1035.310547" xlink:href="#DejaVuSans-61"/>
     <use x="1096.589844" xlink:href="#DejaVuSans-70"/>
     <use x="1160.066406" xlink:href="#DejaVuSans-61"/>
     <use x="1221.345703" xlink:href="#DejaVuSans-63"/>
     <use x="1276.326172" xlink:href="#DejaVuSans-69"/>
     <use x="1304.109375" xlink:href="#DejaVuSans-74"/>
     <use x="1343.318359" xlink:href="#DejaVuSans-6f"/>
     <use x="1404.5" xlink:href="#DejaVuSans-72"/>
     <use x="1443.863281" xlink:href="#DejaVuSans-3a"/>
     <use x="1477.554688" xlink:href="#DejaVuSans-20"/>
     <use x="1509.341797" xlink:href="#DejaVuSans-35"/>
     <use x="1572.964844" xlink:href="#DejaVuSans-2e"/>
     <use x="1604.751953" xlink:href="#DejaVuSans-31"/>
     <use x="1668.375" xlink:href="#DejaVuSans-33"/>
     <use x="1731.998047" xlink:href="#DejaVuSans-20"/>
     <use x="1763.785156" xlink:href="#DejaVuSans-73"/>
    </g>
   </g>
   <g id="text_16">
    <!-- Time to uncharge the capacitor: 6.9 s -->
    <g transform="translate(221.124245 110.204546)scale(0.085 -0.085)">
     <defs>
      <path d="M 544 1381 
L 544 3500 
L 1119 3500 
L 1119 1403 
Q 1119 906 1312 657 
Q 1506 409 1894 409 
Q 2359 409 2629 706 
Q 2900 1003 2900 1516 
L 2900 3500 
L 3475 3500 
L 3475 0 
L 2900 0 
L 2900 538 
Q 2691 219 2414 64 
Q 2138 -91 1772 -91 
Q 1169 -91 856 284 
Q 544 659 544 1381 
z
M 1991 3584 
L 1991 3584 
z
" id="DejaVuSans-75" transform="scale(0.015625)"/>
      <path d="M 3513 2113 
L 3513 0 
L 2938 0 
L 2938 2094 
Q 2938 2591 2744 2837 
Q 2550 3084 2163 3084 
Q 1697 3084 1428 2787 
Q 1159 2491 1159 1978 
L 1159 0 
L 581 0 
L 581 3500 
L 1159 3500 
L 1159 2956 
Q 1366 3272 1645 3428 
Q 1925 3584 2291 3584 
Q 2894 3584 3203 3211 
Q 3513 2838 3513 2113 
z
" id="DejaVuSans-6e" transform="scale(0.015625)"/>
      <path d="M 703 97 
L 703 672 
Q 941 559 1184 500 
Q 1428 441 1663 441 
Q 2288 441 2617 861 
Q 2947 1281 2994 2138 
Q 2813 1869 2534 1725 
Q 2256 1581 1919 1581 
Q 1219 1581 811 2004 
Q 403 2428 403 3163 
Q 403 3881 828 4315 
Q 1253 4750 1959 4750 
Q 2769 4750 3195 4129 
Q 3622 3509 3622 2328 
Q 3622 1225 3098 567 
Q 2575 -91 1691 -91 
Q 1453 -91 1209 -44 
Q 966 3 703 97 
z
M 1959 2075 
Q 2384 2075 2632 2365 
Q 2881 2656 2881 3163 
Q 2881 3666 2632 3958 
Q 2384 4250 1959 4250 
Q 1534 4250 1286 3958 
Q 1038 3666 1038 3163 
Q 1038 2656 1286 2365 
Q 1534 2075 1959 2075 
z
" id="DejaVuSans-39" transform="scale(0.015625)"/>
     </defs>
     <use xlink:href="#DejaVuSans-54"/>
     <use x="57.958984" xlink:href="#DejaVuSans-69"/>
     <use x="85.742188" xlink:href="#DejaVuSans-6d"/>
     <use x="183.154297" xlink:href="#DejaVuSans-65"/>
     <use x="244.677734" xlink:href="#DejaVuSans-20"/>
     <use x="276.464844" xlink:href="#DejaVuSans-74"/>
     <use x="315.673828" xlink:href="#DejaVuSans-6f"/>
     <use x="376.855469" xlink:href="#DejaVuSans-20"/>
     <use x="408.642578" xlink:href="#DejaVuSans-75"/>
     <use x="472.021484" xlink:href="#DejaVuSans-6e"/>
     <use x="535.400391" xlink:href="#DejaVuSans-63"/>
     <use x="590.380859" xlink:href="#DejaVuSans-68"/>
     <use x="653.759766" xlink:href="#DejaVuSans-61"/>
     <use x="715.039062" xlink:href="#DejaVuSans-72"/>
     <use x="754.402344" xlink:href="#DejaVuSans-67"/>
     <use x="817.878906" xlink:href="#DejaVuSans-65"/>
     <use x="879.402344" xlink:href="#DejaVuSans-20"/>
     <use x="911.189453" xlink:href="#DejaVuSans-74"/>
     <use x="950.398438" xlink:href="#DejaVuSans-68"/>
     <use x="1013.777344" xlink:href="#DejaVuSans-65"/>
     <use x="1075.300781" xlink:href="#DejaVuSans-20"/>
     <use x="1107.087891" xlink:href="#DejaVuSans-63"/>
     <use x="1162.068359" xlink:href="#DejaVuSans-61"/>
     <use x="1223.347656" xlink:href="#DejaVuSans-70"/>
     <use x="1286.824219" xlink:href="#DejaVuSans-61"/>
     <use x="1348.103516" xlink:href="#DejaVuSans-63"/>
     <use x="1403.083984" xlink:href="#DejaVuSans-69"/>
     <use x="1430.867188" xlink:href="#DejaVuSans-74"/>
     <use x="1470.076172" xlink:href="#DejaVuSans-6f"/>
     <use x="1531.257812" xlink:href="#DejaVuSans-72"/>
     <use x="1570.621094" xlink:href="#DejaVuSans-3a"/>
     <use x="1604.3125" xlink:href="#DejaVuSans-20"/>
     <use x="1636.099609" xlink:href="#DejaVuSans-36"/>
     <use x="1699.722656" xlink:href="#DejaVuSans-2e"/>
     <use x="1731.509766" xlink:href="#DejaVuSans-39"/>
     <use x="1795.132812" xlink:href="#DejaVuSans-20"/>
     <use x="1826.919922" xlink:href="#DejaVuSans-73"/>
    </g>
   </g>
   <g id="text_17">
    <!-- Dependence of voltage on time -->
    <g transform="translate(126.630938 52.9248)scale(0.12 -0.12)">
     <defs>
      <path d="M 1259 4147 
L 1259 519 
L 2022 519 
Q 2988 519 3436 956 
Q 3884 1394 3884 2338 
Q 3884 3275 3436 3711 
Q 2988 4147 2022 4147 
L 1259 4147 
z
M 628 4666 
L 1925 4666 
Q 3281 4666 3915 4102 
Q 4550 3538 4550 2338 
Q 4550 1131 3912 565 
Q 3275 0 1925 0 
L 628 0 
L 628 4666 
z
" id="DejaVuSans-44" transform="scale(0.015625)"/>
      <path d="M 2906 2969 
L 2906 4863 
L 3481 4863 
L 3481 0 
L 2906 0 
L 2906 525 
Q 2725 213 2448 61 
Q 2172 -91 1784 -91 
Q 1150 -91 751 415 
Q 353 922 353 1747 
Q 353 2572 751 3078 
Q 1150 3584 1784 3584 
Q 2172 3584 2448 3432 
Q 2725 3281 2906 2969 
z
M 947 1747 
Q 947 1113 1208 752 
Q 1469 391 1925 391 
Q 2381 391 2643 752 
Q 2906 1113 2906 1747 
Q 2906 2381 2643 2742 
Q 2381 3103 1925 3103 
Q 1469 3103 1208 2742 
Q 947 2381 947 1747 
z
" id="DejaVuSans-64" transform="scale(0.015625)"/>
      <path d="M 2375 4863 
L 2375 4384 
L 1825 4384 
Q 1516 4384 1395 4259 
Q 1275 4134 1275 3809 
L 1275 3500 
L 2222 3500 
L 2222 3053 
L 1275 3053 
L 1275 0 
L 697 0 
L 697 3053 
L 147 3053 
L 147 3500 
L 697 3500 
L 697 3744 
Q 697 4328 969 4595 
Q 1241 4863 1831 4863 
L 2375 4863 
z
" id="DejaVuSans-66" transform="scale(0.015625)"/>
      <path d="M 191 3500 
L 800 3500 
L 1894 563 
L 2988 3500 
L 3597 3500 
L 2284 0 
L 1503 0 
L 191 3500 
z
" id="DejaVuSans-76" transform="scale(0.015625)"/>
     </defs>
     <use xlink:href="#DejaVuSans-44"/>
     <use x="77.001953" xlink:href="#DejaVuSans-65"/>
     <use x="138.525391" xlink:href="#DejaVuSans-70"/>
     <use x="202.001953" xlink:href="#DejaVuSans-65"/>
     <use x="263.525391" xlink:href="#DejaVuSans-6e"/>
     <use x="326.904297" xlink:href="#DejaVuSans-64"/>
     <use x="390.380859" xlink:href="#DejaVuSans-65"/>
     <use x="451.904297" xlink:href="#DejaVuSans-6e"/>
     <use x="515.283203" xlink:href="#DejaVuSans-63"/>
     <use x="570.263672" xlink:href="#DejaVuSans-65"/>
     <use x="631.787109" xlink:href="#DejaVuSans-20"/>
     <use x="663.574219" xlink:href="#DejaVuSans-6f"/>
     <use x="724.755859" xlink:href="#DejaVuSans-66"/>
     <use x="759.960938" xlink:href="#DejaVuSans-20"/>
     <use x="791.748047" xlink:href="#DejaVuSans-76"/>
     <use x="850.927734" xlink:href="#DejaVuSans-6f"/>
     <use x="912.109375" xlink:href="#DejaVuSans-6c"/>
     <use x="939.892578" xlink:href="#DejaVuSans-74"/>
     <use x="979.101562" xlink:href="#DejaVuSans-61"/>
     <use x="1040.380859" xlink:href="#DejaVuSans-67"/>
     <use x="1103.857422" xlink:href="#DejaVuSans-65"/>
     <use x="1165.380859" xlink:href="#DejaVuSans-20"/>
     <use x="1197.167969" xlink:href="#DejaVuSans-6f"/>
     <use x="1258.349609" xlink:href="#DejaVuSans-6e"/>
     <use x="1321.728516" xlink:href="#DejaVuSans-20"/>
     <use x="1353.515625" xlink:href="#DejaVuSans-74"/>
     <use x="1392.724609" xlink:href="#DejaVuSans-69"/>
     <use x="1420.507812" xlink:href="#DejaVuSans-6d"/>
     <use x="1517.919922" xlink:href="#DejaVuSans-65"/>
    </g>
   </g>
  </g>
 </g>
 <defs>
  <clipPath id="p1526042b97">
   <rect height="378.1008" width="334.8" x="54" y="58.9248"/>
  </clipPath>
 </defs>
</svg>
